<svg width="188" height="61" viewBox="0 0 188 61" fill="none" xmlns="http://www.w3.org/2000/svg">
<g clip-path="url(#clip0_100_1167)">
<path d="M55.2577 13.9256C53.0223 10.4247 48.2154 8.97039 41.7386 9.80511C41.5098 9.83194 41.2673 9.87244 41.0385 9.89926C40.9444 9.68414 40.8502 9.46849 40.7424 9.25336C37.9552 3.34192 34.1445 0.0834961 29.9972 0.0834961C25.8499 0.0834961 22.026 3.34192 19.252 9.25336C19.1579 9.46849 19.0501 9.68414 18.9559 9.89926C18.7134 9.85929 18.4846 9.83194 18.2558 9.80511C11.7658 8.95671 6.97207 10.4247 4.73667 13.9256C2.5018 17.4265 3.1882 22.3949 6.66227 27.9155C7.12039 28.643 7.61849 29.3699 8.15709 30.0836C7.61849 30.8105 7.12039 31.5242 6.66227 32.2511C3.1882 37.7718 2.5018 42.7538 4.73667 46.2416C6.55444 49.0961 10.0827 50.5909 14.8354 50.5909C15.9747 50.5846 17.1124 50.5083 18.2422 50.3616C18.471 50.3347 18.7134 50.2942 18.9422 50.2674C19.0369 50.4831 19.1311 50.6982 19.2389 50.9138C22.026 56.8248 25.8367 60.0837 29.9835 60.0837C34.1309 60.0837 37.9552 56.8248 40.7287 50.9138C40.8228 50.6982 40.9307 50.4831 41.0248 50.2674C41.2673 50.3079 41.4961 50.3347 41.7254 50.3616C42.8542 50.5146 43.9924 50.5909 45.1316 50.5909C49.8849 50.5909 53.4126 49.0961 55.2304 46.2416C57.4658 42.7407 56.7789 37.7718 53.3053 32.2511C52.8472 31.5242 52.3491 30.7973 51.8105 30.0836C52.3491 29.3562 52.8472 28.643 53.3053 27.9155C56.8194 22.3817 57.5063 17.4128 55.2577 13.9256ZM21.6894 10.3979C23.9648 5.55049 26.9944 2.77649 29.9972 2.77649C33 2.77649 36.0296 5.55049 38.305 10.3979C38.3066 10.4079 38.3113 10.4173 38.3187 10.4247C35.4584 11.1127 32.6686 12.0637 29.9835 13.2655C27.3016 12.0579 24.5107 11.1064 21.6489 10.4247C21.6757 10.4247 21.6757 10.411 21.6894 10.3979ZM42.1294 30.0836C42.1299 32.238 42.0131 34.3913 41.7791 36.5331C40.1007 37.8875 38.3476 39.1462 36.5277 40.3033C34.4275 41.6519 32.2415 42.8622 29.9835 43.9257C27.7302 42.8538 25.5443 41.644 23.4399 40.3033C21.6221 39.143 19.869 37.8844 18.1885 36.5331C17.7214 32.2459 17.7214 27.9208 18.1885 23.6336C21.8177 20.717 25.7768 18.236 29.9835 16.2415C32.2373 17.3129 34.4228 18.5226 36.5277 19.8634C38.3455 21.0237 40.0986 22.2823 41.7791 23.6336C42.0131 25.7759 42.1299 27.9287 42.1294 30.0836ZM44.7009 26.1651C46.0195 27.3932 47.2608 28.7019 48.4174 30.0836C47.2608 31.4648 46.0195 32.7734 44.7009 34.0016C44.7819 32.7093 44.8224 31.4033 44.8224 30.0836C44.8224 28.7639 44.7819 27.4579 44.7009 26.1651ZM41.2268 40.3575C40.8018 42.6886 40.1848 44.9808 39.3822 47.211C37.2909 46.7386 35.2386 46.1085 33.2425 45.3259C34.8309 44.4911 36.4199 43.5754 37.9952 42.5792C39.0998 41.8655 40.177 41.1249 41.2268 40.3575ZM26.7519 45.3259C24.7595 46.1185 22.7061 46.7492 20.6122 47.211C19.8096 44.9808 19.1926 42.6886 18.7676 40.3575C19.8043 41.1249 20.8815 41.8655 21.9992 42.5655C23.5745 43.5754 25.1635 44.4911 26.7519 45.3259ZM15.2935 34.0016C13.9749 32.7734 12.7341 31.4648 11.577 30.0836C12.7341 28.7019 13.9749 27.3932 15.2935 26.1651C15.2125 27.4579 15.172 28.7639 15.172 30.0836C15.172 31.4033 15.2125 32.7093 15.2935 34.0016ZM18.7676 19.8097C19.1926 17.4781 19.8096 15.1859 20.6122 12.9562C22.7035 13.428 24.7564 14.0582 26.7519 14.8413C25.1635 15.6761 23.5745 16.5918 21.9992 17.588C20.8947 18.3017 19.8175 19.0423 18.7676 19.8097ZM37.9821 17.588C36.4199 16.5918 34.8309 15.6624 33.2288 14.8413C35.2212 14.0487 37.2746 13.418 39.3691 12.9562C40.1712 15.1859 40.7881 17.4781 41.2136 19.8097C40.177 19.0423 39.0998 18.3017 37.9821 17.588ZM8.93817 26.4749C6.08317 21.9504 5.3831 17.8978 6.99889 15.3663C8.29174 13.3465 11.0926 12.2556 14.8759 12.2556C15.8889 12.2598 16.9009 12.3277 17.9055 12.4576H17.9324C16.8431 15.625 16.0851 18.8966 15.6707 22.2197C13.5957 23.9507 11.6638 25.8469 9.89387 27.8887C9.55724 27.4311 9.23429 26.9598 8.93817 26.4749ZM17.8924 47.6959C16.8878 47.8264 15.8758 47.8937 14.8628 47.8979C11.0789 47.8979 8.27807 46.8207 6.98574 44.7873C5.36995 42.2557 6.07002 38.2031 8.92449 33.6786C9.22062 33.2074 9.54409 32.7224 9.88072 32.2511C11.6501 34.2935 13.582 36.1891 15.657 37.9201C16.072 41.2438 16.8299 44.5153 17.9192 47.6822C17.9192 47.6959 17.9055 47.6959 17.8924 47.6959ZM38.305 49.7693C36.0296 54.6167 33 57.3907 29.9972 57.3907C26.9944 57.3907 23.9648 54.6167 21.6894 49.7693C21.6878 49.7593 21.6831 49.7498 21.6757 49.7425C24.536 49.0545 27.3258 48.1035 30.0109 46.9012C32.6928 48.1093 35.4837 49.0608 38.3455 49.7425C38.3187 49.7425 38.3187 49.7556 38.305 49.7693ZM51.0562 33.6923C53.9112 38.2162 54.6113 42.2694 52.9955 44.8009C51.3797 47.3319 47.4075 48.396 42.102 47.6959H42.0752C43.1645 44.5285 43.923 41.2569 44.3374 37.9338C46.4124 36.2028 48.3443 34.3067 50.1137 32.2648C50.4372 32.7361 50.7601 33.2074 51.0562 33.6923ZM44.3237 22.2334C43.9093 18.9098 43.1513 15.6382 42.062 12.4713H42.0889C47.3939 11.7844 51.366 12.8347 52.9818 15.3663C54.5976 17.8978 53.8976 21.9504 51.0431 26.4749C50.747 26.9462 50.4235 27.4311 50.0869 27.9024C48.3254 25.8569 46.3977 23.9607 44.3237 22.2334Z" fill="#7432FF"/>
<path d="M29.9974 24.7515C27.0524 24.7515 24.665 27.1389 24.665 30.0838C24.665 33.0288 27.0524 35.4156 29.9974 35.4156C32.9423 35.4156 35.3297 33.0288 35.3297 30.0838C35.3276 27.1394 32.9413 24.7536 29.9974 24.7515ZM29.9974 32.7226C28.5399 32.7226 27.358 31.5413 27.358 30.0838C27.358 28.6263 28.5399 27.4445 29.9974 27.4445C31.4549 27.4445 32.6367 28.6263 32.6367 30.0838C32.6341 31.5402 31.4538 32.7205 29.9974 32.7226Z" fill="#7432FF"/>
</g>
<path d="M76.0471 11.8599C76.0471 13.3599 75.1471 14.454 73.1353 14.454H70.6471V9.31867H73.1176C75.2 9.31867 76.0471 10.3069 76.0471 11.8599ZM69.4118 8.2775V20.6128H70.6471V15.4599H72.9235L75.9765 20.6128H77.4588L74.2824 15.3716C76.3647 14.9834 77.3176 13.554 77.3176 11.8599C77.3176 9.83044 75.9765 8.2775 73.1176 8.2775H69.4118ZM83.8808 11.8951C85.6632 11.8951 87.2867 13.0246 87.2338 15.2657H80.4573C80.5985 13.0246 82.1338 11.8951 83.8808 11.8951ZM88.3455 17.5599H87.0397C86.6867 18.8481 85.575 19.7128 83.9338 19.7128C82.1338 19.7128 80.5632 18.5304 80.4573 16.2716H88.4514C88.4867 15.9363 88.4867 15.6893 88.4867 15.301C88.4867 12.8481 86.7573 10.8363 83.9338 10.8363C81.1632 10.8363 79.2044 12.7246 79.2044 15.7951C79.2044 18.8481 81.1985 20.754 83.9338 20.754C86.3514 20.754 87.9044 19.3775 88.3455 17.5599ZM90.1821 15.7775C90.1821 18.7951 92.1409 20.754 94.7703 20.754C96.6938 20.754 98.035 19.7128 98.5997 18.4775V20.6128H99.835V10.9775H98.5997V13.0951C98.0527 11.8775 96.7291 10.8363 94.788 10.8363C92.1409 10.8363 90.1821 12.7599 90.1821 15.7775ZM98.5997 15.7951C98.5997 18.1951 96.9938 19.6775 95.0174 19.6775C92.988 19.6775 91.435 18.2128 91.435 15.7775C91.435 13.3246 92.988 11.9128 95.0174 11.9128C96.9938 11.9128 98.5997 13.3951 98.5997 15.7951ZM102.09 15.7951C102.09 18.8481 104.049 20.754 106.767 20.754C109.185 20.754 110.755 19.3951 111.196 17.4716H109.873C109.537 18.8834 108.39 19.7128 106.767 19.7128C104.879 19.7128 103.343 18.4069 103.343 15.7951C103.343 13.1834 104.879 11.8951 106.767 11.8951C108.39 11.8951 109.555 12.7422 109.873 14.1187H111.196C110.755 12.1246 109.185 10.8363 106.767 10.8363C104.049 10.8363 102.09 12.7422 102.09 15.7951ZM113.831 18.001C113.831 19.9246 114.731 20.6128 116.407 20.6128H117.731V19.554H116.601C115.489 19.554 115.084 19.1834 115.084 18.001V12.0187H117.731V10.9775H115.084V8.55985H113.831V10.9775H112.489V12.0187H113.831V18.001ZM132.675 8.2775V18.6363L125.846 8.2775H124.611V20.6128H125.846V10.2363L132.675 20.6128H133.911V8.2775H132.675ZM136.144 15.7775C136.144 18.7951 138.103 20.754 140.732 20.754C142.655 20.754 143.997 19.7128 144.561 18.4775V20.6128H145.797V10.9775H144.561V13.0951C144.014 11.8775 142.691 10.8363 140.75 10.8363C138.103 10.8363 136.144 12.7599 136.144 15.7775ZM144.561 15.7951C144.561 18.1951 142.955 19.6775 140.979 19.6775C138.95 19.6775 137.397 18.2128 137.397 15.7775C137.397 13.3246 138.95 11.9128 140.979 11.9128C142.955 11.9128 144.561 13.3951 144.561 15.7951ZM148.97 18.001C148.97 19.9246 149.87 20.6128 151.546 20.6128H152.87V19.554H151.74C150.628 19.554 150.223 19.1834 150.223 18.001V12.0187H152.87V10.9775H150.223V8.55985H148.97V10.9775H147.628V12.0187H148.97V18.001ZM154.907 20.6128H156.142V10.9775H154.907V20.6128ZM155.525 9.15985C156.019 9.15985 156.425 8.77162 156.425 8.2422C156.425 7.71279 156.019 7.3422 155.525 7.3422C155.03 7.3422 154.625 7.71279 154.625 8.2422C154.625 8.77162 155.03 9.15985 155.525 9.15985ZM157.793 10.9775L161.657 20.6128H163.051L166.916 10.9775H165.61L162.363 19.4128L159.116 10.9775H157.793ZM172.702 11.8951C174.484 11.8951 176.108 13.0246 176.055 15.2657H169.279C169.42 13.0246 170.955 11.8951 172.702 11.8951ZM177.167 17.5599H175.861C175.508 18.8481 174.396 19.7128 172.755 19.7128C170.955 19.7128 169.384 18.5304 169.279 16.2716H177.273C177.308 15.9363 177.308 15.6893 177.308 15.301C177.308 12.8481 175.579 10.8363 172.755 10.8363C169.984 10.8363 168.026 12.7246 168.026 15.7951C168.026 18.8481 170.02 20.754 172.755 20.754C175.173 20.754 176.726 19.3775 177.167 17.5599ZM82.5379 29.8697H69.832V50.6128H82.5379V46.5646H74.8848V42.0142H81.6514V38.1137H74.8848V33.9179H82.5379V29.8697ZM95.5693 50.6128H101.243L95.5693 42.4278L101.095 34.1247H95.6284L92.969 38.6752L89.8073 34.1247H84.134L89.7187 42.1915L84.2817 50.6128H89.7482L92.4076 46.0328L95.5693 50.6128ZM108.242 36.459V34.1247H103.19V58.4727H108.242V48.308C109.158 49.6968 110.902 50.8492 113.325 50.8492C117.373 50.8492 120.594 47.5397 120.594 42.3392C120.594 37.1386 117.373 33.8883 113.325 33.8883C110.902 33.8883 109.158 35.0112 108.242 36.459ZM115.452 42.3392C115.452 44.969 113.738 46.4464 111.818 46.4464C109.927 46.4464 108.213 44.9986 108.213 42.3687C108.213 39.7389 109.927 38.291 111.818 38.291C113.738 38.291 115.452 39.7094 115.452 42.3392ZM130.513 37.9365C132.198 37.9365 133.616 38.9707 133.616 40.7731H127.293C127.588 38.9411 128.859 37.9365 130.513 37.9365ZM138.403 45.1463H133.025C132.611 46.0328 131.814 46.7419 130.395 46.7419C128.77 46.7419 127.44 45.7373 127.263 43.5802H138.698C138.758 43.0779 138.787 42.5756 138.787 42.1028C138.787 37.0795 135.389 33.8883 130.573 33.8883C125.667 33.8883 122.24 37.1386 122.24 42.3687C122.24 47.5988 125.727 50.8492 130.573 50.8492C134.68 50.8492 137.605 48.3671 138.403 45.1463ZM146.505 42.9597C146.505 40.1231 147.894 39.2957 150.288 39.2957H151.676V33.9474C149.46 33.9474 147.658 35.1293 146.505 36.8727V34.1247H141.453V50.6128H146.505V42.9597ZM154.889 44.8804C154.889 49.1649 157.283 50.6128 160.71 50.6128H163.281V46.3283H161.479C160.356 46.3283 159.942 45.9146 159.942 44.9395V38.3206H163.252V34.1247H159.942V30.1061H154.889V34.1247H152.88V38.3206H154.889V44.8804ZM179.481 45.8259C179.393 39.6798 170.469 41.5414 170.469 38.9116C170.469 38.1137 171.119 37.641 172.301 37.641C173.719 37.641 174.576 38.3797 174.724 39.5025H179.393C179.068 36.2522 176.704 33.8883 172.449 33.8883C168.135 33.8883 165.741 36.1931 165.741 39.0002C165.741 45.0577 174.724 43.137 174.724 45.7964C174.724 46.5351 174.044 47.1261 172.744 47.1261C171.355 47.1261 170.321 46.3578 170.203 45.2054H165.209C165.446 48.3967 168.4 50.8492 172.803 50.8492C176.94 50.8492 179.481 48.6921 179.481 45.8259Z" fill="#142032"/>
<defs>
<clipPath id="clip0_100_1167">
<rect width="60" height="60" fill="white" transform="translate(0 0.0834961)"/>
</clipPath>
</defs>
</svg>
